:SAMPLES-PER-SECOND 30
:FULLY-SPECIFIED
:DEGREES
306
root  -72.4167 40.4079 10.2937 -172.156 -71.9086 170.275
RightUpLeg  -15.9243 -9.48279 -10.9296
RightLeg  39.8735 -2.3451 -2.3588
RightFoot  -0.951501 -0.629846 6.85107
RightToes  -2.9104e-010 0 -3.6325e-017
Spine  8.10688 -1.39963 -7.13274
Spine1  -1.03752 -2.23856 1.18384
HEad  -7.72932 -26.2936 -3.39515
LeftShoulder1  -0.55163 5.06141 -29.2462
LeftArm  -5.91251 9.50238 -39.5476
LeftForeArm  28.2531 -13.0192 -6.06513
LeftHand  -0.0716221 7.97868 -1.22142
RightShoulder  -1.19985 -6.80384 29.8515
RightArm  15.7626 -20.2237 41.7441
RightForeArm  21.515 13.4589 5.47505
RightHand  -0.00935755 1.64495 -0.305457
LeftUpLeg  -6.31432 5.88543 -3.10914
LeftLeg  11.7351 4.08352 -0.977707
LeftFoot  -4.14464 -0.328291 5.62287
LeftToes  -3.37426e-010 -1.91496e-010 5.23909e-011
307
root  -71.9292 40.3914 10.7064 -172.711 -69.6525 170.713
RightUpLeg  -14.1454 -8.87504 -10.6234
RightLeg  44.9579 -1.79225 -2.21252
RightFoot  -1.81047 -0.445403 5.19084
RightToes  -2.9104e-010 0 -3.6325e-017
Spine  7.14586 -1.39846 -8.2259
Spine1  -0.473114 -2.48686 2.19684
HEad  -8.97111 -23.8632 -2.43604
LeftShoulder1  -0.610961 5.22243 -29.3882
LeftArm  -6.95079 9.91384 -37.184
LeftForeArm  28.6196 -13.23 -5.65013
LeftHand  -0.0933631 9.09312 -1.31464
RightShoulder  -1.23125 -6.89933 29.7582
RightArm  12.7683 -17.7399 40.621
RightForeArm  20.6371 12.7235 4.98628
RightHand  -0.027614 1.52883 -0.61109
LeftUpLeg  -6.59574 6.18635 -3.31326
LeftLeg  10.8556 6.08344 -1.31352
LeftFoot  -3.48313 -0.35477 5.46143
LeftToes  -3.37426e-010 -1.91496e-010 5.23909e-011
308
root  -71.4055 40.3173 11.1888 -173.291 -66.659 170.991
RightUpLeg  -11.7209 -9.22058 -10.8597
RightLeg  47.909 -1.11954 -1.66266
RightFoot  -2.73802 -0.352807 4.45037
RightToes  -2.9104e-010 0 -3.6325e-017
Spine  6.87082 -1.02653 -7.4129
Spine1  -0.823591 -1.93612 1.09203
HEad  -9.97854 -22.2149 -2.14537
LeftShoulder1  -0.547991 5.02359 -29.8945
LeftArm  -7.93882 10.1992 -34.6398
LeftForeArm  26.591 -12.7849 -5.48519
LeftHand  -0.0847525 9.55293 -0.712139
RightShoulder  -1.17641 -6.81183 29.0532
RightArm  9.76508 -15.5585 40.386
RightForeArm  18.2621 11.8979 4.4443
RightHand  -0.0369158 2.36325 -0.732835
LeftUpLeg  -7.24953 6.00317 -3.89619
LeftLeg  10.8313 9.14955 -0.890137
LeftFoot  -2.83368 -0.42236 5.90695
LeftToes  -3.37426e-010 -1.91496e-010 5.23909e-011
309
root  -70.9687 40.2983 11.6999 -173.642 -63.3189 170.7
RightUpLeg  -8.18292 -10.5254 -12.0565
RightLeg  48.5022 -1.24778 -1.84444
RightFoot  -3.57503 -0.33262 4.53649
RightToes  -2.9104e-010 0 -3.6325e-017
Spine  6.18845 -0.631809 -5.51595
Spine1  -0.25573 -1.05295 -1.25247
HEad  -11.6014 -20.6114 -1.60873
LeftShoulder1  -0.502035 4.89938 -29.8184
LeftArm  -9.39632 10.9934 -33.2687
LeftForeArm  23.417 -13.1584 -4.91052
LeftHand  0.0087536 8.26863 1.96254
RightShoulder  -1.13236 -6.70434 28.8652
RightArm  6.68263 -13.0803 40.4918
RightForeArm  15.5912 11.7845 3.68658
RightHand  -0.0930878 2.89427 -1.53043
LeftUpLeg  -7.14184 5.45089 -4.77814
LeftLeg  9.93193 13.0053 -0.335146
LeftFoot  -1.72411 -0.485263 5.88877
LeftToes  -3.37426e-010 -1.91496e-010 5.23909e-011
310
root  -70.4638 40.2856 12.1362 -174.074 -60.4582 170.941
RightUpLeg  -4.38448 -13.0343 -13.2057
RightLeg  46.9475 -2.26287 -2.91071
RightFoot  -4.47644 -0.278257 4.12394
RightToes  -2.9104e-010 0 -3.6325e-017
Spine  5.10938 -0.308083 -3.79547
Spine1  0.51683 -0.29245 -2.92699
HEad  -13.6644 -19.1452 -1.13022
LeftShoulder1  -0.471405 4.82972 -29.3808
LeftArm  -9.22372 10.8533 -32.2151
LeftForeArm  19.9652 -12.7473 -5.07152
LeftHand  0.0178225 7.93162 2.56425
RightShoulder  -1.12123 -6.65624 29.0487
RightArm  5.11244 -10.0633 40.5026
RightForeArm  14.0877 12.0701 3.31908
RightHand  -0.081372 3.10763 -1.35662
LeftUpLeg  -7.66203 5.26739 -5.01558
LeftLeg  9.26626 15.9515 -0.222396
LeftFoot  -0.688199 -0.570155 6.14626
LeftToes  -3.37426e-010 -1.91496e-010 5.23909e-011
311
root  -69.9849 40.2972 12.6089 -175.682 -56.9566 171.773
RightUpLeg  0.366771 -15.5197 -14.766
RightLeg  43.3627 -3.28136 -3.6063
RightFoot  -4.56139 -0.204544 2.94327
RightToes  -2.9104e-010 0 -3.6325e-017
Spine  5.02232 0.37488 -0.912369
Spine1  0.719344 0.915611 -5.11604
HEad  -15.8385 -17.2988 -0.845148
LeftShoulder1  -0.410434 4.6681 -29.0907
LeftArm  -10.3424 11.9213 -32.3864
LeftForeArm  19.1482 -14.0956 -4.42009
LeftHand  0.0366602 8.6387 2.89474
RightShoulder  -1.08147 -6.57721 28.6559
RightArm  4.7645 -7.85623 40.7853
RightForeArm  12.4323 13.9945 3.27842
RightHand  -0.0485538 3.85946 -0.86998
LeftUpLeg  -7.36184 5.50356 -4.79504
LeftLeg  8.45441 19.2961 -0.205423
LeftFoot  0.50213 -0.707591 6.78909
LeftToes  -3.37426e-010 -1.91496e-010 5.23909e-011
312
root  -69.4305 40.3138 13.0446 -176.329 -53.473 172.216
RightUpLeg  4.31909 -19.1151 -16.698
RightLeg  38.9286 -4.65213 -4.28211
RightFoot  -4.21676 -0.1464 1.88493
RightToes  -2.9104e-010 0 -3.6325e-017
Spine  4.82435 0.922537 0.982801
Spine1  0.311066 1.78308 -5.92852
HEad  -17.7335 -15.4943 -1.26626
LeftShoulder1  -0.478379 4.85056 -29.3626
LeftArm  -9.31126 11.9336 -32.103
LeftForeArm  17.575 -14.004 -4.75749
LeftHand  0.0315696 7.52451 3.6307
RightShoulder  -0.958633 -6.2822 27.9424
RightArm  4.56745 -5.85256 41.722
RightForeArm  12.7128 16.7535 3.31719
RightHand  -0.0752024 3.6672 -1.21821
LeftUpLeg  -7.54464 5.59938 -4.46821
LeftLeg  7.11447 22.6775 -0.580407
LeftFoot  1.83897 -0.829683 7.07197
LeftToes  -3.37426e-010 -1.91496e-010 5.23909e-011
313
root  -68.8404 40.3311 13.4306 -176.969 -50.3522 173.081
RightUpLeg  8.14398 -24.8825 -18.9442
RightLeg  34.2681 -6.42781 -4.93365
RightFoot  -4.35386 -0.125004 1.55851
RightToes  -2.9104e-010 0 -3.6325e-017
Spine  4.2741 1.30834 2.69452
Spine1  0.0619448 2.3599 -6.20389
HEad  -19.2372 -14.983 -1.89212
LeftShoulder1  -0.45408 4.7725 -29.6206
LeftArm  -9.9108 13.3114 -32.7419
LeftForeArm  18.8246 -16.1482 -4.15574
LeftHand  0.021549 8.11905 2.69265
RightShoulder  -0.948649 -6.27907 27.5613
RightArm  5.80246 -3.77159 42.2719
RightForeArm  12.5537 20.3902 3.81149
RightHand  -0.113389 4.06056 -1.66387
LeftUpLeg  -8.18126 6.02565 -3.60437
LeftLeg  6.00589 25.3521 -1.13624
LeftFoot  3.18383 -0.990413 7.60805
LeftToes  -3.37426e-010 -1.91496e-010 5.23909e-011
